<svg width="25" height="25" viewBox="0 0 25 25" fill="none" xmlns="http://www.w3.org/2000/svg">
<g id="Frame" clip-path="url(#clip0_131_2320)">
<g id="Group">
<path id="Vector" d="M17.2729 0.812059C17.2219 0.755059 15.3844 0.834559 13.7854 2.57006C12.1864 4.30406 12.4324 6.29306 12.4684 6.34406C12.5044 6.39506 14.7484 6.47456 16.1809 4.45706C17.6134 2.43956 17.3239 0.870559 17.2729 0.812059ZM22.2439 18.4116C22.1719 18.2676 18.7564 16.5606 19.0744 13.2786C19.3924 9.99506 21.5869 9.09506 21.6214 8.99756C21.6559 8.90006 20.7259 7.81256 19.7404 7.26206C19.0168 6.87394 18.216 6.65157 17.3959 6.61106C17.2339 6.60656 16.6714 6.46856 15.5149 6.78506C14.7529 6.99356 13.0354 7.66856 12.5629 7.69556C12.0889 7.72256 10.6789 6.91256 9.16239 6.69806C8.19189 6.51056 7.16289 6.89456 6.42639 7.19006C5.69139 7.48406 4.29339 8.32106 3.31539 10.5456C2.33739 12.7686 2.84889 16.2906 3.21489 17.3856C3.58089 18.4791 4.15239 20.2716 5.12439 21.5796C5.98839 23.0556 7.13439 24.0801 7.61289 24.4281C8.09139 24.7761 9.44139 25.0071 10.3774 24.5286C11.1304 24.0666 12.4894 23.8011 13.0264 23.8206C13.5619 23.8401 14.6179 24.0516 15.6994 24.6291C16.5559 24.9246 17.3659 24.8016 18.1774 24.4716C18.9889 24.1401 20.1634 22.8831 21.5344 20.3346C22.0549 19.1496 22.2919 18.5091 22.2439 18.4116Z" fill="black"/>
<path id="Vector_2" d="M17.2729 0.812059C17.2219 0.755059 15.3844 0.834559 13.7854 2.57006C12.1864 4.30406 12.4324 6.29306 12.4684 6.34406C12.5044 6.39506 14.7484 6.47456 16.1809 4.45706C17.6134 2.43956 17.3239 0.870559 17.2729 0.812059ZM22.2439 18.4116C22.1719 18.2676 18.7564 16.5606 19.0744 13.2786C19.3924 9.99506 21.5869 9.09506 21.6214 8.99756C21.6559 8.90006 20.7259 7.81256 19.7404 7.26206C19.0168 6.87394 18.216 6.65157 17.3959 6.61106C17.2339 6.60656 16.6714 6.46856 15.5149 6.78506C14.7529 6.99356 13.0354 7.66856 12.5629 7.69556C12.0889 7.72256 10.6789 6.91256 9.16239 6.69806C8.19189 6.51056 7.16289 6.89456 6.42639 7.19006C5.69139 7.48406 4.29339 8.32106 3.31539 10.5456C2.33739 12.7686 2.84889 16.2906 3.21489 17.3856C3.58089 18.4791 4.15239 20.2716 5.12439 21.5796C5.98839 23.0556 7.13439 24.0801 7.61289 24.4281C8.09139 24.7761 9.44139 25.0071 10.3774 24.5286C11.1304 24.0666 12.4894 23.8011 13.0264 23.8206C13.5619 23.8401 14.6179 24.0516 15.6994 24.6291C16.5559 24.9246 17.3659 24.8016 18.1774 24.4716C18.9889 24.1401 20.1634 22.8831 21.5344 20.3346C22.0549 19.1496 22.2919 18.5091 22.2439 18.4116Z" fill="black"/>
</g>
</g>
<defs>
<clipPath id="clip0_131_2320">
<rect width="24" height="24" fill="white" transform="translate(0.5 0.800049)"/>
</clipPath>
</defs>
</svg>
