<svg width="18" height="18" viewBox="0 0 18 18" fill="none" xmlns="http://www.w3.org/2000/svg">
<path fill-rule="evenodd" clip-rule="evenodd" d="M9.00008 0.666504C4.39781 0.666504 0.666748 4.39756 0.666748 8.99984C0.666748 13.6021 4.39781 17.3332 9.00008 17.3332C13.6024 17.3332 17.3334 13.6021 17.3334 8.99984C17.3334 4.39756 13.6024 0.666504 9.00008 0.666504ZM12.6122 7.59075C12.6787 7.51472 12.7294 7.42616 12.7611 7.33027C12.7929 7.23438 12.8052 7.13311 12.7973 7.0324C12.7893 6.9317 12.7613 6.8336 12.7149 6.74387C12.6685 6.65415 12.6046 6.57461 12.527 6.50994C12.4494 6.44528 12.3597 6.39678 12.263 6.36731C12.1664 6.33784 12.0649 6.32799 11.9644 6.33834C11.8639 6.3487 11.7665 6.37904 11.6779 6.42759C11.5893 6.47614 11.5114 6.54192 11.4486 6.62105L8.19099 10.5294L6.50538 8.84302C6.3625 8.70502 6.17114 8.62866 5.97251 8.63039C5.77387 8.63211 5.58386 8.71179 5.4434 8.85225C5.30294 8.99271 5.22327 9.18272 5.22154 9.38135C5.21981 9.57999 5.29617 9.77135 5.43417 9.91423L7.7069 12.187C7.78134 12.2614 7.87046 12.3194 7.96858 12.3575C8.0667 12.3955 8.17167 12.4127 8.2768 12.4079C8.38193 12.4031 8.48491 12.3765 8.57918 12.3297C8.67345 12.2829 8.75694 12.217 8.82432 12.1362L12.6122 7.59075Z" fill=""/>
</svg>
