<svg width="93" height="93" viewBox="0 0 93 93" fill="none" xmlns="http://www.w3.org/2000/svg">
<circle cx="46.5225" cy="46.5222" r="32.5222" transform="rotate(45 46.5225 46.5222)" fill="#F75555"/>
<path fill-rule="evenodd" clip-rule="evenodd" d="M57.6495 59.1318C58.8786 57.9028 58.8786 55.91 57.6495 54.6809L50.973 48.0044L57.6495 41.328C58.8786 40.0989 58.8786 38.1061 57.6495 36.877C56.4204 35.6479 54.4276 35.6479 53.1985 36.877L46.5221 43.5535L39.8456 36.877C38.6165 35.6479 36.6237 35.6479 35.3946 36.877C34.1655 38.1061 34.1655 40.0989 35.3946 41.328L42.0711 48.0044L35.3946 54.6809C34.1655 55.91 34.1655 57.9028 35.3946 59.1318C36.6237 60.361 38.6165 60.361 39.8456 59.1318L46.5221 52.4554L53.1985 59.1318C54.4276 60.361 56.4204 60.361 57.6495 59.1318Z" fill="white"/>
</svg>
