<svg width="186" height="180" viewBox="0 0 186 180" fill="none" xmlns="http://www.w3.org/2000/svg">
<circle cx="95.5" cy="90.5" r="70.5" fill="#F75555"/>
<circle cx="178.466" cy="27.5" r="7.5" fill="#FFC7C7"/>
<circle cx="20.0332" cy="10" r="10" fill="#FFC7C7"/>
<circle cx="10.0332" cy="133" r="5" fill="#FFC7C7"/>
<circle cx="165.533" cy="160.5" r="2.5" fill="#FFC7C7"/>
<path d="M138 90.5C138 98.9057 135.507 107.123 130.837 114.112C126.167 121.101 119.53 126.548 111.764 129.765C103.998 132.982 95.4529 133.823 87.2087 132.183C78.9645 130.543 71.3917 126.496 65.448 120.552C59.5042 114.608 55.4565 107.036 53.8166 98.7913C52.1768 90.5471 53.0184 82.0018 56.2351 74.2359C59.4519 66.4701 64.8992 59.8325 71.8883 55.1625C78.8774 50.4926 87.0943 48 95.5 48C106.768 48.0119 117.571 52.4934 125.539 60.4611C133.507 68.4288 137.988 79.2319 138 90.5ZM131.462 90.5C131.462 83.3875 129.352 76.4347 125.401 70.5208C121.449 64.607 115.833 59.9977 109.262 57.2759C102.691 54.554 95.4601 53.8419 88.4843 55.2295C81.5084 56.617 75.1007 60.042 70.0714 65.0713C65.0421 70.1007 61.6171 76.5084 60.2295 83.4842C58.8419 90.4601 59.554 97.6908 62.2759 104.262C64.9977 110.833 69.607 116.449 75.5209 120.401C81.4347 124.352 88.3875 126.462 95.5 126.462C105.034 126.451 114.175 122.658 120.917 115.917C127.658 109.175 131.451 100.034 131.462 90.5Z" fill="#F5F5F5"/>
<path d="M91.942 97.2449C91.942 95.3559 92.4142 93.6243 93.3587 92.0502C94.3032 90.476 95.5956 89.2416 97.2361 88.3468C98.048 87.916 98.6859 87.2863 99.1499 86.4578C99.6139 85.6127 99.8458 84.6848 99.8458 83.674C99.8458 82.713 99.6056 81.8431 99.1251 81.0643C98.6611 80.2689 98.0314 79.6475 97.2361 79.2001C96.4407 78.7362 95.5708 78.5042 94.6263 78.5042C93.6652 78.5042 92.787 78.7362 91.9917 79.2001C91.1963 79.6475 90.5666 80.2689 90.1027 81.0643C89.6387 81.8431 89.4067 82.713 89.4067 83.674H83.3421C83.3421 81.6028 83.8475 79.7221 84.8583 78.032C85.8691 76.3252 87.2278 74.9665 88.9345 73.9557C90.6578 72.945 92.555 72.4396 94.6263 72.4396C96.6975 72.4396 98.5865 72.945 100.293 73.9557C102 74.9665 103.359 76.3252 104.369 78.032C105.397 79.7221 105.91 81.6028 105.91 83.674C105.91 85.795 105.389 87.7503 104.345 89.5398C103.317 91.3294 101.901 92.713 100.094 93.6906C99.4482 94.0386 98.9345 94.5274 98.5534 95.1571C98.1888 95.7867 98.0066 96.4827 98.0066 97.2449H91.942ZM95.198 108.529C94.3198 108.529 93.5741 108.222 92.961 107.609C92.3645 106.996 92.0662 106.251 92.0662 105.372C92.0662 104.511 92.3645 103.782 92.961 103.185C93.5741 102.589 94.3198 102.29 95.198 102.29C96.0596 102.29 96.7887 102.589 97.3852 103.185C97.9817 103.782 98.28 104.511 98.28 105.372C98.28 106.251 97.9817 106.996 97.3852 107.609C96.7887 108.222 96.0596 108.529 95.198 108.529Z" fill="white"/>
<circle cx="106.533" cy="4.5" r="2.5" fill="#FFC7C7"/>
<circle cx="62.5332" cy="176.5" r="3.5" fill="#FFC7C7"/>
<circle cx="122.033" cy="171" r="1" fill="#FFC7C7"/>
<circle cx="170.533" cy="110.5" r="2.5" fill="#FFC7C7"/>
<circle cx="1.0332" cy="75" r="1" fill="#FFC7C7"/>
</svg>
