<svg width="18" height="20" viewBox="0 0 18 20" fill="none" xmlns="http://www.w3.org/2000/svg">
<path d="M16.6435 7.48826C16.6435 7.55626 16.1105 14.297 15.8061 17.1339C15.6155 18.8749 14.4932 19.9308 12.8097 19.9608C11.5162 19.9898 10.2499 19.9998 9.00407 19.9998C7.68139 19.9998 6.3879 19.9898 5.13233 19.9608C3.50525 19.9218 2.38196 18.8449 2.20106 17.1339C1.8879 14.287 1.36467 7.55626 1.35494 7.48826C1.34522 7.28327 1.41135 7.08828 1.54556 6.93028C1.67783 6.78429 1.86845 6.69629 2.06879 6.69629H15.9393C16.1387 6.69629 16.3196 6.78429 16.4626 6.93028C16.5958 7.08828 16.6629 7.28327 16.6435 7.48826Z" fill="#F75555"/>
<path d="M18 3.97686C18 3.56588 17.6761 3.24389 17.2871 3.24389H14.3714C13.7781 3.24389 13.2627 2.8219 13.1304 2.22692L12.967 1.49795C12.7385 0.616978 11.9498 0 11.0647 0H6.93624C6.0415 0 5.26054 0.616978 5.02323 1.54595L4.87054 2.22792C4.7373 2.8219 4.22185 3.24389 3.62957 3.24389H0.713853C0.32386 3.24389 0 3.56588 0 3.97686V4.35685C0 4.75783 0.32386 5.08982 0.713853 5.08982H17.2871C17.6761 5.08982 18 4.75783 18 4.35685V3.97686Z" fill="#F75555"/>
</svg>
