<svg width="24" height="25" viewBox="0 0 24 25" fill="none" xmlns="http://www.w3.org/2000/svg">
<g id="Frame" clip-path="url(#clip0_131_2291)">
<path id="Vector" d="M23.5078 13.0245C23.5078 12.0413 23.4295 11.3237 23.2598 10.5797H12.2295V15.0176H18.7041C18.5736 16.1205 17.8687 17.7815 16.3022 18.8976L16.2802 19.0462L19.7678 21.7964L20.0095 21.8209C22.2285 19.7347 23.5078 16.6653 23.5078 13.0245Z" fill="#4285F4"/>
<path id="Vector_2" d="M12.2296 24.7176C15.4016 24.7176 18.0645 23.6546 20.0095 21.821L16.3023 18.8976C15.3102 19.6019 13.9787 20.0935 12.2296 20.0935C9.1228 20.0935 6.48598 18.0074 5.54603 15.124L5.40825 15.1359L1.7818 17.9928L1.73438 18.127C3.6663 22.0335 7.63462 24.7176 12.2296 24.7176Z" fill="#6DCD47"/>
<path id="Vector_3" d="M5.54597 15.124C5.29795 14.3799 5.15442 13.5826 5.15442 12.7588C5.15442 11.935 5.29795 11.1377 5.53292 10.3937L5.52635 10.2352L1.85446 7.33246L1.73432 7.39063C0.938084 9.01173 0.481201 10.8322 0.481201 12.7588C0.481201 14.6855 0.938084 16.5059 1.73432 18.127L5.54597 15.124Z" fill="#FBBC05"/>
<path id="Vector_4" d="M12.2295 5.42408C14.4356 5.42408 15.9237 6.39406 16.7722 7.20466L20.0878 3.90933C18.0515 1.98264 15.4015 0.800049 12.2295 0.800049C7.63462 0.800049 3.6663 3.48411 1.73438 7.39061L5.53297 10.3936C6.48597 7.51025 9.12279 5.42408 12.2295 5.42408Z" fill="#EB4335"/>
</g>
<defs>
<clipPath id="clip0_131_2291">
<rect width="23.04" height="24" fill="white" transform="translate(0.47998 0.800049)"/>
</clipPath>
</defs>
</svg>
