<svg width="20" height="20" viewBox="0 0 20 20" fill="none" xmlns="http://www.w3.org/2000/svg">
<path fill-rule="evenodd" clip-rule="evenodd" d="M2.9165 8.59809C2.9165 4.76487 6.11974 1.66663 9.99438 1.66663C13.8799 1.66663 17.0832 4.76487 17.0832 8.59809C17.0832 10.5297 16.3807 12.323 15.2244 13.8429C13.9488 15.5196 12.3766 16.9803 10.607 18.127C10.2019 18.392 9.8364 18.412 9.39188 18.127C7.61212 16.9803 6.03991 15.5196 4.77525 13.8429C3.61816 12.323 2.9165 10.5297 2.9165 8.59809ZM7.66169 8.81392C7.66169 10.098 8.70955 11.108 9.99438 11.108C11.28 11.108 12.338 10.098 12.338 8.81392C12.338 7.53979 11.28 6.48065 9.99438 6.48065C8.70955 6.48065 7.66169 7.53979 7.66169 8.81392Z" fill=""/>
</svg>
