<svg width="38" height="29" viewBox="0 0 38 29" fill="none" xmlns="http://www.w3.org/2000/svg">
<g clip-path="url(#clip0_239_9277)">
<path d="M6.90857 28.8558V26.9365C6.90857 26.2005 6.45227 25.7208 5.67016 25.7208C5.27917 25.7208 4.85553 25.8487 4.56222 26.2646C4.33422 25.9127 4.0084 25.7208 3.51959 25.7208C3.19362 25.7208 2.86795 25.8167 2.60715 26.1686V25.7848H1.92285V28.8558H2.60715V27.1603C2.60715 26.6166 2.90046 26.3605 3.35676 26.3605C3.81276 26.3605 4.04105 26.6485 4.04105 27.1603V28.8558H4.72535V27.1603C4.72535 26.6166 5.05102 26.3605 5.47466 26.3605C5.93096 26.3605 6.15896 26.6485 6.15896 27.1603V28.8558H6.90857ZM17.0425 25.7848H15.9348V24.8571H15.2505V25.7848H14.6313V26.3924H15.2503V27.8002C15.2503 28.5041 15.5436 28.9198 16.3257 28.9198C16.6191 28.9198 16.9447 28.8239 17.173 28.696L16.9774 28.1201C16.7819 28.248 16.5539 28.2801 16.3909 28.2801C16.0651 28.2801 15.9348 28.0881 15.9348 27.7681V26.3924H17.0425V25.7848ZM22.8429 25.7206C22.4519 25.7206 22.1913 25.9127 22.0283 26.1686V25.7848H21.344V28.8558H22.0283V27.1284C22.0283 26.6166 22.2563 26.3286 22.6799 26.3286C22.8102 26.3286 22.9732 26.3607 23.1035 26.3926L23.299 25.7528C23.1687 25.7208 22.9732 25.7208 22.8429 25.7208V25.7206ZM14.0774 26.0407C13.7514 25.8167 13.2952 25.7208 12.8064 25.7208C12.0245 25.7208 11.5032 26.1046 11.5032 26.7125C11.5032 27.2244 11.8941 27.5122 12.5784 27.6083L12.9043 27.6403C13.2627 27.7042 13.4582 27.8002 13.4582 27.9602C13.4582 28.184 13.1976 28.344 12.7413 28.344C12.2851 28.344 11.9266 28.184 11.6985 28.0242L11.3727 28.536C11.7312 28.7919 12.22 28.9198 12.7086 28.9198C13.6211 28.9198 14.1425 28.5041 14.1425 27.9281C14.1425 27.3843 13.7189 27.0963 13.0671 27.0004L12.7413 26.9684C12.448 26.9363 12.22 26.8725 12.22 26.6806C12.22 26.4566 12.448 26.3286 12.8064 26.3286C13.1976 26.3286 13.5886 26.4885 13.784 26.5845L14.0774 26.0407ZM32.2602 25.7208C31.8691 25.7208 31.6084 25.9127 31.4454 26.1686V25.7848H30.7611V28.8558H31.4454V27.1284C31.4454 26.6166 31.6736 26.3286 32.0971 26.3286C32.2276 26.3286 32.3905 26.3607 32.5209 26.3926L32.7164 25.7528C32.586 25.7208 32.3905 25.7208 32.2602 25.7208ZM23.5272 27.3203C23.5272 28.248 24.1788 28.9198 25.1891 28.9198C25.6452 28.9198 25.9711 28.8239 26.2969 28.568L25.9711 28.0242C25.7104 28.2161 25.4498 28.312 25.1564 28.312C24.6025 28.312 24.2115 27.9281 24.2115 27.3203C24.2115 26.7445 24.6025 26.3605 25.1564 26.3286C25.4498 26.3286 25.7104 26.4245 25.9711 26.6166L26.2969 26.0727C25.9711 25.8167 25.6452 25.7208 25.1891 25.7208C24.1788 25.7208 23.5272 26.3926 23.5272 27.3203ZM29.8488 27.3203V25.7848H29.1645V26.1686C28.9364 25.8808 28.6106 25.7208 28.1869 25.7208C27.3071 25.7208 26.6229 26.3926 26.6229 27.3203C26.6229 28.248 27.3071 28.9198 28.1869 28.9198C28.6431 28.9198 28.9691 28.76 29.1645 28.472V28.8558H29.8488V27.3203ZM27.3397 27.3203C27.3397 26.7764 27.6981 26.3286 28.2846 26.3286C28.8386 26.3286 29.2297 26.7445 29.2297 27.3203C29.2297 27.8642 28.8386 28.312 28.2846 28.312C27.6981 28.2799 27.3397 27.8642 27.3397 27.3203ZM19.1607 25.7208C18.2483 25.7208 17.5965 26.3605 17.5965 27.3203C17.5965 28.2801 18.2482 28.9198 19.1933 28.9198C19.6494 28.9198 20.1057 28.7919 20.4642 28.5041L20.1382 28.0242C19.8776 28.2161 19.5517 28.344 19.2259 28.344C18.8023 28.344 18.3786 28.1521 18.2808 27.6081H20.5945V27.3524C20.6272 26.3605 20.0405 25.7208 19.1606 25.7208H19.1607ZM19.1607 26.2966C19.5842 26.2966 19.8777 26.5526 19.9427 27.0325H18.3135C18.3786 26.6166 18.6719 26.2966 19.1607 26.2966ZM36.1378 27.3203V24.5691H35.4535V26.1686C35.2254 25.8808 34.8996 25.7208 34.4759 25.7208C33.5961 25.7208 32.9119 26.3926 32.9119 27.3203C32.9119 28.248 33.5961 28.9198 34.4759 28.9198C34.9322 28.9198 35.2581 28.76 35.4535 28.472V28.8558H36.1378V27.3203ZM33.6288 27.3203C33.6288 26.7764 33.9871 26.3286 34.5738 26.3286C35.1277 26.3286 35.5187 26.7445 35.5187 27.3203C35.5187 27.8642 35.1277 28.312 34.5738 28.312C33.9871 28.2799 33.6288 27.8642 33.6288 27.3203ZM10.7535 27.3203V25.7848H10.0693V26.1686C9.8411 25.8808 9.51528 25.7208 9.09164 25.7208C8.21185 25.7208 7.52755 26.3926 7.52755 27.3203C7.52755 28.248 8.21185 28.9198 9.09164 28.9198C9.54794 28.9198 9.87376 28.76 10.0693 28.472V28.8558H10.7535V27.3203ZM8.21185 27.3203C8.21185 26.7764 8.57033 26.3286 9.15681 26.3286C9.71077 26.3286 10.1019 26.7445 10.1019 27.3203C10.1019 27.8642 9.71077 28.312 9.15681 28.312C8.57033 28.2799 8.21185 27.8642 8.21185 27.3203Z" fill="black"/>
<path d="M13.8486 2.46326H24.1131V20.5702H13.8486V2.46326Z" fill="#FF5F00"/>
<path d="M14.5007 11.5168C14.5007 7.83787 16.2603 4.57471 18.9648 2.46325C16.9772 0.927709 14.4682 0 11.731 0C5.24623 0 0 5.15049 0 11.5168C0 17.8829 5.24623 23.0336 11.7309 23.0336C14.4681 23.0336 16.9771 22.1059 18.9648 20.5702C16.2603 18.4908 14.5007 15.1957 14.5007 11.5168Z" fill="#EB001B"/>
<path d="M37.9619 11.5168C37.9619 17.8829 32.7157 23.0336 26.231 23.0336C23.4938 23.0336 20.9848 22.1059 18.9971 20.5702C21.7343 18.4589 23.4613 15.1957 23.4613 11.5168C23.4613 7.83787 21.7016 4.57471 18.9971 2.46325C20.9846 0.927709 23.4938 0 26.231 0C32.7157 0 37.962 5.18255 37.962 11.5168H37.9619Z" fill="#F79E1B"/>
</g>
<defs>
<clipPath id="clip0_239_9277">
<rect width="38" height="29" fill="white"/>
</clipPath>
</defs>
</svg>
