<svg width="20" height="18" viewBox="0 0 20 18" fill="none" xmlns="http://www.w3.org/2000/svg">
<path d="M20 12.941C20 15.731 17.76 17.991 14.97 18.001H14.96H5.05C2.27 18.001 0 15.751 0 12.961V12.951C0 12.951 0.006 8.52498 0.014 6.29898C0.015 5.88098 0.495 5.64698 0.822 5.90698C3.198 7.79198 7.447 11.229 7.5 11.274C8.21 11.843 9.11 12.164 10.03 12.164C10.95 12.164 11.85 11.843 12.56 11.263C12.613 11.228 16.767 7.89398 19.179 5.97798C19.507 5.71698 19.989 5.95098 19.99 6.36798C20 8.57698 20 12.941 20 12.941Z" fill="#6DCD47"/>
<path d="M19.4759 2.674C18.6099 1.042 16.9059 0 15.0299 0H5.04988C3.17388 0 1.46988 1.042 0.603884 2.674C0.409884 3.039 0.501884 3.494 0.824884 3.752L8.24988 9.691C8.76988 10.111 9.39988 10.32 10.0299 10.32C10.0339 10.32 10.0369 10.32 10.0399 10.32C10.0429 10.32 10.0469 10.32 10.0499 10.32C10.6799 10.32 11.3099 10.111 11.8299 9.691L19.2549 3.752C19.5779 3.494 19.6699 3.039 19.4759 2.674Z" fill="#6DCD47"/>
</svg>
