<svg width="18" height="20" viewBox="0 0 18 20" fill="none" xmlns="http://www.w3.org/2000/svg">
<path d="M15.8088 7.021C15.3573 7.021 14.7592 7.011 14.0146 7.011C12.1987 7.011 10.7055 5.508 10.7055 3.675V0.459C10.7055 0.206 10.5036 0 10.253 0H4.96363C2.49517 0 0.5 2.026 0.5 4.509V15.284C0.5 17.889 2.59022 20 5.16958 20H13.0463C15.5058 20 17.5 17.987 17.5 15.502V7.471C17.5 7.217 17.299 7.012 17.0475 7.013C16.6247 7.016 16.1177 7.021 15.8088 7.021Z" fill="#6DCD47"/>
<path d="M13.0842 0.56737C12.7852 0.25637 12.2632 0.47037 12.2632 0.90137V3.53837C12.2632 4.64437 13.1742 5.55437 14.2802 5.55437C14.9772 5.56237 15.9452 5.56437 16.7672 5.56237C17.1882 5.56137 17.4022 5.05837 17.1102 4.75437C16.0552 3.65737 14.1662 1.69137 13.0842 0.56737Z" fill="#6DCD47"/>
<path fill-rule="evenodd" clip-rule="evenodd" d="M5.97398 9.38744H9.35898C9.76998 9.38744 10.104 9.05444 10.104 8.64344C10.104 8.23244 9.76998 7.89844 9.35898 7.89844H5.97398C5.56298 7.89844 5.22998 8.23244 5.22998 8.64344C5.22998 9.05444 5.56298 9.38744 5.97398 9.38744ZM5.97408 14.3816H11.4181C11.8291 14.3816 12.1631 14.0486 12.1631 13.6376C12.1631 13.2266 11.8291 12.8926 11.4181 12.8926H5.97408C5.56308 12.8926 5.23008 13.2266 5.23008 13.6376C5.23008 14.0486 5.56308 14.3816 5.97408 14.3816Z" fill="#F8FFF5"/>
</svg>
