<svg width="22" height="16" viewBox="0 0 22 16" fill="none" xmlns="http://www.w3.org/2000/svg">
<path d="M10.9491 10.54C7.49909 10.54 4.58813 11.1038 4.58813 13.2795C4.58813 15.4562 7.51789 16.0001 10.9491 16.0001C14.3991 16.0001 17.31 15.4364 17.31 13.2606C17.31 11.084 14.3803 10.54 10.9491 10.54Z" fill="#6DCD47"/>
<path d="M10.949 8.46703C13.2851 8.46703 15.1583 6.58307 15.1583 4.23351C15.1583 1.88306 13.2851 0 10.949 0C8.61293 0 6.73975 1.88306 6.73975 4.23351C6.73975 6.58307 8.61293 8.46703 10.949 8.46703Z" fill="#6DCD47"/>
<path d="M20.0881 5.21972C20.6925 2.84225 18.9205 0.707031 16.664 0.707031C16.4187 0.707031 16.1841 0.734048 15.9549 0.779976C15.9244 0.787181 15.8904 0.80249 15.8725 0.829507C15.8519 0.863728 15.8671 0.909656 15.8895 0.939375C16.5673 1.89577 16.9568 3.06018 16.9568 4.31016C16.9568 5.5079 16.5996 6.62459 15.9728 7.55126C15.9083 7.64672 15.9656 7.7755 16.0793 7.79531C16.2369 7.82323 16.3981 7.83763 16.5629 7.84214C18.2059 7.88536 19.6807 6.82181 20.0881 5.21972Z" fill="#6DCD47"/>
<path d="M21.8092 10.8165C21.5083 10.1717 20.7821 9.7295 19.6781 9.51246C19.157 9.38459 17.7467 9.20447 16.435 9.22879C16.4153 9.23149 16.4045 9.245 16.4027 9.254C16.4 9.26661 16.4054 9.28823 16.4314 9.30173C17.0376 9.60342 19.3808 10.9155 19.0862 13.6829C19.0737 13.8027 19.1695 13.9063 19.2886 13.8883C19.8652 13.8054 21.3489 13.4848 21.8092 12.4861C22.0635 11.9584 22.0635 11.3451 21.8092 10.8165Z" fill="#6DCD47"/>
<path d="M6.04483 0.779976C5.8165 0.733147 5.58101 0.707031 5.33567 0.707031C3.07926 0.707031 1.30726 2.84225 1.91255 5.21972C2.31906 6.82181 3.79379 7.88536 5.43685 7.84214C5.60161 7.83763 5.76368 7.82232 5.92037 7.79531C6.03409 7.7755 6.09139 7.64672 6.02692 7.55126C5.40014 6.62368 5.04288 5.5079 5.04288 4.31016C5.04288 3.05928 5.43327 1.89486 6.11109 0.939375C6.13258 0.909656 6.1487 0.863728 6.12721 0.829507C6.1093 0.80159 6.07617 0.787181 6.04483 0.779976Z" fill="#6DCD47"/>
<path d="M2.32156 9.5127C1.21752 9.72973 0.492248 10.1719 0.191392 10.8167C-0.0637974 11.3453 -0.0637974 11.9586 0.191392 12.4872C0.651629 13.4851 2.13531 13.8066 2.71195 13.8885C2.83104 13.9065 2.92595 13.8038 2.91342 13.6832C2.61883 10.9167 4.9621 9.60456 5.56918 9.30287C5.59425 9.28846 5.59962 9.26775 5.59694 9.25424C5.59515 9.24523 5.5853 9.23173 5.5656 9.22992C4.25294 9.20471 2.84358 9.38482 2.32156 9.5127Z" fill="#6DCD47"/>
</svg>
