<svg width="24" height="24" viewBox="0 0 24 24" fill="none" xmlns="http://www.w3.org/2000/svg">
<path d="M3.12692 5.77942C2.83591 4.98276 3.05491 4.10058 3.68568 3.53272C4.31495 2.9671 5.21123 2.83958 5.97176 3.2094L19.5397 9.54368C20.2672 9.88425 20.7877 10.5061 20.9985 11.2488H6.03401L3.16967 5.87469C3.15392 5.84393 3.13967 5.81168 3.12692 5.77942ZM6.04451 12.7498L3.22967 18.1322C3.21392 18.1622 3.20042 18.1922 3.18917 18.2237C2.89891 19.0211 3.12017 19.9018 3.75094 20.4689C4.1417 20.8192 4.63522 21 5.13173 21C5.43849 21 5.746 20.931 6.03251 20.7907L19.5412 14.4609C20.271 14.1189 20.7907 13.4947 21 12.7506H6.04451V12.7498Z" fill="white"/>
</svg>
