<svg width="186" height="180" viewBox="0 0 186 180" fill="none" xmlns="http://www.w3.org/2000/svg">
<circle cx="95.5" cy="90.5" r="70.5" fill="#6DCD47"/>
<circle cx="178.467" cy="27.5" r="7.5" fill="#6DCD47"/>
<circle cx="20.0332" cy="10" r="10" fill="#6DCD47"/>
<circle cx="10.0332" cy="133" r="5" fill="#6DCD47"/>
<circle cx="165.533" cy="160.5" r="2.5" fill="#6DCD47"/>
<path fill-rule="evenodd" clip-rule="evenodd" d="M100.715 88.6147H107.519C108.551 88.6147 109.362 87.7617 109.362 86.7331C109.362 85.6795 108.551 84.8516 107.519 84.8516H100.715C99.6835 84.8516 98.8729 85.6795 98.8729 86.7331C98.8729 87.7617 99.6835 88.6147 100.715 88.6147ZM115.601 75.5717C117.099 75.5717 118.082 76.0986 119.065 77.2526C120.047 78.4066 120.219 80.0624 119.998 81.5651L117.664 98.0225C117.222 101.186 114.569 103.517 111.45 103.517H84.6502C81.3832 103.517 78.6811 100.96 78.4109 97.6487L76.151 70.3008L72.4418 69.6486C71.4592 69.4729 70.7714 68.4945 70.9434 67.491C71.1153 66.4649 72.0733 65.7851 73.0805 65.9381L78.939 66.8387C79.7742 66.9918 80.3883 67.6917 80.462 68.5447L80.9287 74.1643C81.0024 74.9696 81.6411 75.5717 82.4271 75.5717H115.601ZM84.2567 107.482C82.1933 107.482 80.5229 109.188 80.5229 111.295C80.5229 113.377 82.1933 115.083 84.2567 115.083C86.2955 115.083 87.9659 113.377 87.9659 111.295C87.9659 109.188 86.2955 107.482 84.2567 107.482ZM111.891 107.482C109.828 107.482 108.158 109.188 108.158 111.295C108.158 113.377 109.828 115.083 111.891 115.083C113.93 115.083 115.601 113.377 115.601 111.295C115.601 109.188 113.93 107.482 111.891 107.482Z" fill="white"/>
<circle cx="106.533" cy="4.5" r="2.5" fill="#6DCD47"/>
<circle cx="62.5332" cy="176.5" r="3.5" fill="#6DCD47"/>
<circle cx="122.033" cy="171" r="1" fill="#6DCD47"/>
<circle cx="170.533" cy="110.5" r="2.5" fill="#6DCD47"/>
<circle cx="1.0332" cy="75" r="1" fill="#6DCD47"/>
</svg>
