<svg width="51" height="16" viewBox="0 0 51 16" fill="none" xmlns="http://www.w3.org/2000/svg">
<path d="M37.074 0.655382C35.8888 0.213262 34.6359 -0.00859599 33.3745 0.00025473C29.2951 0.00025473 26.414 2.10397 26.3936 5.12383C26.3681 7.34239 28.441 8.59261 30.009 9.33387C31.6178 10.096 32.1558 10.5763 32.1507 11.2575C32.1405 12.2937 30.8657 12.7635 29.6801 12.7635C28.0509 12.7635 27.1611 12.5312 25.7919 11.9492L25.2846 11.7064L24.7058 15.183C25.6976 15.6059 27.4849 15.9687 29.3308 16C33.6677 16 36.5029 13.9093 36.536 10.6963C36.5717 8.92409 35.4499 7.58512 33.0889 6.47845C31.6535 5.76068 30.7637 5.28043 30.7637 4.55222C30.7637 3.90753 31.526 3.21847 33.1195 3.21847C34.1801 3.19221 35.234 3.3959 36.2122 3.81618L36.5947 3.99105L37.1734 0.631891L37.074 0.655382ZM47.66 0.282142H44.473C43.4812 0.282142 42.7341 0.56142 42.3007 1.56891L36.1714 15.7834H40.5083L41.3752 13.4526L46.6682 13.4578C46.7931 14.0033 47.1756 15.7834 47.1756 15.7834H51L47.66 0.282142ZM20.527 0.151638H24.6599L22.0746 15.6607H17.9468L20.527 0.146418V0.151638ZM10.0353 8.69963L10.4636 10.8529L14.5022 0.282142H18.8799L12.3758 15.7625H8.00835L4.43888 2.6547C4.38107 2.43856 4.2453 2.25293 4.05899 2.13529C2.77246 1.45495 1.40929 0.938647 0 0.597959L0.0560915 0.2717H6.70804C7.61061 0.308241 8.33725 0.59796 8.57946 1.58457L10.0327 8.70746L10.0353 8.69963ZM42.5608 10.2813L44.2078 5.94339C44.1874 5.99037 44.5469 5.04813 44.756 4.46609L45.039 5.80506L45.9951 10.2787H42.5582L42.5608 10.2813Z" fill="#1A1F71"/>
</svg>
